<?xml version="1.0" standalone="no"?>
<!DOCTYPE svg PUBLIC "-//W3C//DTD SVG 20010904//EN"
 "http://www.w3.org/TR/2001/REC-SVG-20010904/DTD/svg10.dtd">
<svg version="1.0" xmlns="http://www.w3.org/2000/svg"
 width="400.000000pt" height="400.000000pt" viewBox="0 0 400.000000 400.000000"
 preserveAspectRatio="xMidYMid meet">
<metadata>
Created by potrace 1.14, written by Peter Selinger 2001-2017
</metadata>
<g transform="translate(0.000000,400.000000) scale(0.100000,-0.100000)"
fill="#000000" stroke="none">
<path d="M1768 3995 c-2 -1 -43 -6 -93 -9 -49 -4 -99 -9 -110 -11 -11 -3 -42
-7 -70 -9 -162 -16 -553 -103 -685 -153 -8 -3 -21 -7 -27 -9 -69 -14 -417
-161 -573 -242 -69 -36 -135 -70 -147 -76 -13 -6 -23 -14 -23 -18 0 -5 -7 -8
-16 -8 -15 0 -16 -17 -10 -167 3 -93 8 -193 10 -223 7 -84 16 -163 21 -180 2
-8 7 -35 10 -60 2 -25 7 -56 10 -70 2 -13 7 -42 11 -64 3 -22 7 -43 9 -46 2
-3 6 -22 9 -44 8 -49 51 -221 77 -306 197 -639 516 -1176 969 -1631 85 -85
180 -176 210 -202 176 -150 354 -279 550 -399 l106 -65 64 40 c200 124 478
319 515 361 6 6 37 34 70 61 90 76 293 277 391 390 271 313 527 729 664 1080
17 44 35 89 40 100 13 28 99 290 104 318 2 12 9 34 15 50 6 15 8 27 6 27 -2 0
0 11 5 26 6 14 12 39 15 57 4 18 12 61 20 97 27 122 51 272 61 381 3 41 8 83
10 94 3 11 7 100 9 198 5 154 4 177 -10 177 -8 0 -15 3 -15 8 0 4 -10 12 -23
18 -12 6 -83 42 -157 81 -242 124 -426 197 -745 292 -76 23 -326 78 -395 87
-35 5 -63 9 -110 18 -14 3 -56 8 -95 12 -38 3 -86 8 -105 11 -39 5 -567 13
-572 8z"/>
</g>
</svg>
