<svg xmlns="http://www.w3.org/2000/svg" xmlns:xlink="http://www.w3.org/1999/xlink" width="16" height="16" viewBox="0 0 16 16">
  <defs>
    <clipPath id="clip-path">
      <rect id="Rectangle_2025" data-name="Rectangle 2025" width="16" height="16" transform="translate(-1 39)" fill="#fff" stroke="#707070" stroke-width="1"/>
    </clipPath>
  </defs>
  <g id="safari-pinned-tab" transform="translate(1 -39)" clip-path="url(#clip-path)">
    <g id="pitchin_logo" transform="translate(1.379 39.476)">
      <path id="Path_43743" data-name="Path 43743" d="M16.71,27.308a.419.419,0,0,1,.467-.378h1.668a1.692,1.692,0,0,1,1.9,1.852v.041a1.742,1.742,0,0,1-1.981,1.869h-.8v1.739c0,.258-.313.388-.629.388s-.629-.129-.629-.388Zm1.259.718v1.7h.8c.452,0,.725-.258.725-.806v-.089c0-.548-.273-.806-.725-.806h-.8Z" transform="translate(-12.726 -20.514)" fill="#006837"/>
      <path id="Path_43744" data-name="Path 43744" d="M16.17,9.111H8.081a.541.541,0,0,1,0-1.081H16.17a.541.541,0,1,1,0,1.081" transform="translate(-5.762 -6.111)" fill="#006837"/>
      <path id="Path_43745" data-name="Path 43745" d="M10.713,15.015H5.562a5.267,5.267,0,0,1-4.086-1.6A7.061,7.061,0,0,1,0,8.632L.017,2.464A2.113,2.113,0,0,1,.695.863,4.214,4.214,0,0,1,3.867.027h6.846a.528.528,0,0,1,0,1.055H3.845a.259.259,0,0,1-.043,0,3.742,3.742,0,0,0-2.394.559,1.049,1.049,0,0,0-.337.823,1.151,1.151,0,0,0,.348.864,3.9,3.9,0,0,0,2.411.7h6.882a.528.528,0,0,1,.528.528v9.925a.53.53,0,0,1-.528.532M1.072,4.393l0,4.244a.582.582,0,0,1,0,.064,5.909,5.909,0,0,0,1.189,4.008,4.265,4.265,0,0,0,3.3,1.248h4.621V5.088H3.85a5.519,5.519,0,0,1-2.778-.695" transform="translate(0.003 -0.008)" fill="#c00000"/>
    </g>
  </g>
</svg>
