<?xml version="1.0" encoding="utf-8"?>
<!-- Generator: Adobe Illustrator 25.0.0, SVG Export Plug-In . SVG Version: 6.00 Build 0)  -->
<svg version="1.1" id="Layer_1" xmlns="http://www.w3.org/2000/svg" xmlns:xlink="http://www.w3.org/1999/xlink" x="0px" y="0px"
	 viewBox="0 0 1073 322.9" style="enable-background:new 0 0 1073 322.9;" xml:space="preserve">
<style type="text/css">
	.st0{fill:#000125;}
	.st1{fill:#0F72E5;}
	.st2{fill:url(#SVGID_1_);}
	.st3{fill:#1EA8FE;}
	.st4{fill:url(#XMLID_2_);}
	.st5{fill:url(#XMLID_3_);}
	.st6{fill:url(#SVGID_2_);}
</style>
<g>
	<g>
		<path class="st0" d="M398.7,172.6h20.9v40c-5.4,4-11.6,7.1-18.6,9.3s-14.1,3.2-21.3,3.2c-10.2,0-19.5-2.2-27.6-6.6
			c-8.2-4.4-14.6-10.4-19.2-18.2c-4.7-7.8-7-16.5-7-26.3s2.3-18.5,7-26.3s11.1-13.8,19.4-18.2c8.3-4.4,17.6-6.6,27.9-6.6
			c8.6,0,16.5,1.5,23.5,4.4c7,2.9,13,7.1,17.8,12.7l-14.7,13.5c-7.1-7.4-15.6-11.1-25.5-11.1c-6.3,0-11.9,1.3-16.8,3.9
			c-4.9,2.6-8.7,6.3-11.4,11.1c-2.7,4.8-4.1,10.3-4.1,16.5c0,6.1,1.4,11.6,4.1,16.4c2.7,4.8,6.5,8.5,11.4,11.2
			c4.8,2.7,10.4,4,16.6,4c6.6,0,12.5-1.4,17.8-4.2v-28.7H398.7z"/>
		<path class="st0" d="M544.3,124.8h22.8v98.7h-22.8V124.8z"/>
		<path class="st0" d="M611,143.4h-31.6v-18.6h86v18.6h-31.6v80.1H611V143.4z"/>
	</g>
</g>
<polygon class="st0" points="433.7,124.8 465.8,160.4 433.7,194.8 461.5,194.8 492.8,159.8 460.6,124.8 "/>
<polygon class="st0" points="476.2,124.8 508.2,160.4 476.2,194.8 503.9,194.8 535.2,159.8 503,124.8 "/>
<path class="st0" d="M476.2,194.8l20,28.7l27.2,0.2l-19.5-28.9"/>
<g>
	<path class="st1" d="M701.4,178.8v44.8h-8.5l-22.3-27.2v27.2h-10.2v-44.8h8.6l22.3,27.2v-27.2H701.4z"/>
	<path class="st1" d="M748.1,215.3v8.3h-34.7v-44.8h33.9v8.3h-23.6v9.7h20.8v8.1h-20.8v10.4H748.1z"/>
	<path class="st1" d="M766.9,187.3h-14.3v-8.4h39v8.4h-14.3v36.4h-10.4V187.3z"/>
	
		<linearGradient id="SVGID_1_" gradientUnits="userSpaceOnUse" x1="804.1" y1="104.7" x2="854.9478" y2="155.5477" gradientTransform="matrix(1 0 0 -1 0 324)">
		<stop  offset="0" style="stop-color:#0F72E5"/>
		<stop  offset="0.4554" style="stop-color:#168CF1"/>
		<stop  offset="1" style="stop-color:#1EA8FE"/>
	</linearGradient>
	<path class="st2" d="M865.4,178.8l-14.7,44.8h-11.1l-9.9-30.3l-10.2,30.3h-11.1l-14.7-44.8h10.8l10.1,31.5l10.6-31.5h9.6l10.2,31.7
		l10.4-31.7H865.4z"/>
	<path class="st3" d="M881.1,221.4c-3.7-2-6.7-4.8-8.8-8.3s-3.2-7.5-3.2-11.9s1.1-8.4,3.2-11.9s5-6.3,8.8-8.3c3.7-2,7.9-3,12.6-3
		s8.8,1,12.5,3s6.6,4.8,8.8,8.3c2.1,3.5,3.2,7.5,3.2,11.9s-1.1,8.4-3.2,11.9c-2.1,3.5-5.1,6.3-8.8,8.3s-7.9,3-12.5,3
		S884.9,223.4,881.1,221.4z M900.9,213.8c2.1-1.2,3.8-2.9,5-5.1c1.2-2.2,1.8-4.6,1.8-7.4c0-2.8-0.6-5.2-1.8-7.4s-2.9-3.9-5-5.1
		c-2.1-1.2-4.5-1.8-7.2-1.8s-5,0.6-7.2,1.8c-2.1,1.2-3.8,2.9-5,5.1c-1.2,2.2-1.8,4.7-1.8,7.4c0,2.8,0.6,5.2,1.8,7.4s2.9,3.9,5,5.1
		c2.1,1.2,4.5,1.8,7.2,1.8S898.8,215,900.9,213.8z"/>
	<path class="st3" d="M955.9,223.6l-8.6-12.5h-0.5h-9v12.5h-10.4v-44.8h19.4c4,0,7.4,0.7,10.3,2c2.9,1.3,5.2,3.2,6.8,5.6
		c1.6,2.4,2.4,5.3,2.4,8.6s-0.8,6.2-2.4,8.6c-1.6,2.4-3.9,4.3-6.8,5.5l10,14.4L955.9,223.6L955.9,223.6z M953.3,189.3
		c-1.6-1.3-4-2-7.1-2h-8.4v15.6h8.4c3.1,0,5.5-0.7,7.1-2c1.6-1.4,2.4-3.3,2.4-5.8S954.9,190.6,953.3,189.3z"/>
	<path class="st3" d="M992.1,206l-6,6.3v11.3h-10.3v-44.8h10.3v20.9l19.8-20.9h11.5l-18.6,20l19.6,24.8h-12.1L992.1,206z"/>
</g>
<g>
	
		<linearGradient id="XMLID_2_" gradientUnits="userSpaceOnUse" x1="125.8008" y1="190.0388" x2="209.4735" y2="45.1134" gradientTransform="matrix(1 0 0 -1 0 324)">
		<stop  offset="0" style="stop-color:#0032BD"/>
		<stop  offset="0.8984" style="stop-color:#0D7EE1"/>
		<stop  offset="1" style="stop-color:#0F87E5"/>
	</linearGradient>
	<path id="XMLID_784_" class="st4" d="M221.1,96.3c-3.9-3.7-8.2-7-12.7-10L177,124.8c8.1,3.9,15.3,9.7,21,17.1
		c3.9,4.9,7,10.6,9.3,16.6c2.8,7.5,4.3,15.6,4.3,24.1c0,34.9-25.9,63.2-57.8,63.2s-57.7-28.3-57.7-63.2c0-3.1,0.3-6.4,0.6-9.4
		c0-0.1,0-0.3,0.1-0.4c-13.5,16.3-26.8,32.7-40.3,49l0,0c14.5,43.4,52.6,74.3,97.2,74.3c57.2,0,103.5-50.8,103.5-113.4
		C257.6,148,243.4,117,221.1,96.3z"/>
	
		<linearGradient id="XMLID_3_" gradientUnits="userSpaceOnUse" x1="136.4699" y1="169.1632" x2="226.2044" y2="169.1632" gradientTransform="matrix(1 0 0 -1 0 324)">
		<stop  offset="0" style="stop-color:#0F72E5"/>
		<stop  offset="0.4554" style="stop-color:#168CF1"/>
		<stop  offset="1" style="stop-color:#1EA8FE"/>
	</linearGradient>
	<path id="XMLID_778_" class="st5" d="M216.6,146.8l-10.5,12.9l-52.3,64.6l-1.5-1.3c-18.4-14.8-21.1-41.8-6.3-60.2l30-36.8
		l31.3-38.5l1.6-1.9l1.5,1.3c3.9,3.1,7,6.7,9.4,10.8C229.1,112.5,228.4,132.4,216.6,146.8z"/>
	
		<linearGradient id="SVGID_2_" gradientUnits="userSpaceOnUse" x1="50.7162" y1="198.5191" x2="172.9674" y2="198.5191" gradientTransform="matrix(1 0 0 -1 0 324)">
		<stop  offset="0" style="stop-color:#0F72E5"/>
		<stop  offset="0.166" style="stop-color:#127DEA"/>
		<stop  offset="0.7013" style="stop-color:#1B9CF9"/>
		<stop  offset="1" style="stop-color:#1EA8FE"/>
	</linearGradient>
	<path class="st6" d="M172.5,70c-0.6,4.5-1.9,8.8-4,13c0,0.1-0.1,0.3-0.1,0.4c-1.3,3-3.1,5.7-5.2,8.4l-24.3,29.8
		c-13.8,16.8-27.4,33.5-41.2,50.5c-0.1,0.1-0.3,0.3-0.4,0.4c-13.5,16.3-26.8,32.7-40.3,49c-4.3-12.9-5.5-25.6-5.7-27.1v-0.1
		c-0.4-5.2-1.3-18.7,3.9-34c1.8-5.2,5.1-12.7,11.2-20.8c17.2-21.3,34.6-42.7,51.8-64l37.3-46.1l1.6,1.3
		C169.2,40.6,174.6,55.6,172.5,70z"/>
</g>
</svg>
